<svg width="194" height="30" viewBox="0 0 194 30" fill="none" xmlns="http://www.w3.org/2000/svg">
<path d="M24.12 2.6V7.92H15.52V29H8.64V7.92H1.49012e-08V2.6H24.12ZM30.4259 6.68C29.0393 6.68 28.0259 6.42667 27.3859 5.92C26.7726 5.38667 26.4659 4.56 26.4659 3.44C26.4659 2.29333 26.7726 1.46667 27.3859 0.959999C28.0259 0.426666 29.0393 0.159999 30.4259 0.159999C31.7859 0.159999 32.7859 0.426666 33.4259 0.959999C34.0659 1.46667 34.3859 2.29333 34.3859 3.44C34.3859 4.56 34.0659 5.38667 33.4259 5.92C32.7859 6.42667 31.7859 6.68 30.4259 6.68ZM33.8259 9V29H27.0259V9H33.8259ZM48.1466 8.6C50.1732 8.6 51.8532 8.89333 53.1866 9.48C54.5466 10.04 55.5999 10.8 56.3466 11.76C57.1199 12.6933 57.5999 13.7067 57.7866 14.8L51.5066 16.88C51.3199 15.7333 50.9732 14.88 50.4666 14.32C49.9866 13.7333 49.2799 13.44 48.3466 13.44C47.4932 13.44 46.7732 13.64 46.1866 14.04C45.6266 14.4133 45.1999 15.0267 44.9066 15.88C44.6132 16.7067 44.4666 17.7733 44.4666 19.08C44.4666 20.3867 44.6266 21.4533 44.9466 22.28C45.2666 23.08 45.7199 23.6667 46.3066 24.04C46.8932 24.3867 47.5866 24.56 48.3866 24.56C49.0532 24.56 49.5999 24.44 50.0266 24.2C50.4799 23.9333 50.8532 23.56 51.1466 23.08C51.4399 22.6 51.6266 22.0133 51.7066 21.32L57.8266 23.28C57.6399 24.4533 57.1332 25.5067 56.3066 26.44C55.5066 27.3467 54.4399 28.0667 53.1066 28.6C51.7732 29.1333 50.2132 29.4 48.4266 29.4C46.2399 29.4 44.3332 29 42.7066 28.2C41.0799 27.3733 39.8266 26.1867 38.9466 24.64C38.0666 23.0667 37.6266 21.1867 37.6266 19C37.6266 16.8133 38.0666 14.9467 38.9466 13.4C39.8266 11.8267 41.0532 10.64 42.6266 9.84C44.2266 9.01333 46.0666 8.6 48.1466 8.6ZM83.3219 9L73.7219 19.24L72.4419 19.6L66.7219 26L66.6819 19.04L75.7619 9H83.3219ZM68.1619 0.52V29H61.3619V0.52H68.1619ZM74.7619 15L83.7619 29H76.2419L70.3219 19L74.7619 15ZM94.95 29.4C92.7367 29.4 90.8167 28.9867 89.19 28.16C87.59 27.3333 86.35 26.1467 85.47 24.6C84.59 23.0533 84.15 21.1867 84.15 19C84.15 16.8133 84.59 14.9467 85.47 13.4C86.35 11.8533 87.5767 10.6667 89.15 9.84C90.75 9.01333 92.5767 8.6 94.63 8.6C96.7367 8.6 98.5233 9.01333 99.99 9.84C101.483 10.64 102.617 11.76 103.39 13.2C104.163 14.6133 104.55 16.24 104.55 18.08C104.55 18.56 104.537 19.04 104.51 19.52C104.483 20 104.443 20.4 104.39 20.72H88.55V17.08H101.39L98.15 18.32C98.15 16.72 97.8567 15.4933 97.27 14.64C96.71 13.7867 95.83 13.36 94.63 13.36C93.7767 13.36 93.0433 13.56 92.43 13.96C91.8433 14.36 91.39 14.9867 91.07 15.84C90.7767 16.6933 90.63 17.7867 90.63 19.12C90.63 20.4267 90.8033 21.4933 91.15 22.32C91.4967 23.12 91.99 23.7067 92.63 24.08C93.27 24.4267 94.0433 24.6 94.95 24.6C95.9633 24.6 96.7633 24.4 97.35 24C97.9633 23.6 98.4167 23.04 98.71 22.32L104.15 24.12C103.777 25.2667 103.123 26.24 102.19 27.04C101.283 27.8133 100.19 28.4 98.91 28.8C97.6567 29.2 96.3367 29.4 94.95 29.4ZM116.48 2.64V21.88C116.48 22.84 116.706 23.5333 117.16 23.96C117.64 24.36 118.293 24.56 119.12 24.56C119.76 24.56 120.306 24.4933 120.76 24.36C121.24 24.2 121.666 23.9733 122.04 23.68L122.76 27.88C122.093 28.36 121.253 28.7333 120.24 29C119.226 29.2667 118.186 29.4 117.12 29.4C115.6 29.4 114.28 29.1867 113.16 28.76C112.066 28.3333 111.213 27.6533 110.6 26.72C110.013 25.7867 109.706 24.5467 109.68 23V4.52L116.48 2.64ZM122.44 9V13.84H106.24V9H122.44ZM135.101 8.6C137.207 8.6 139.047 9.01333 140.621 9.84C142.221 10.64 143.461 11.8267 144.341 13.4C145.247 14.9467 145.701 16.8133 145.701 19C145.701 21.1867 145.247 23.0667 144.341 24.64C143.461 26.1867 142.221 27.3733 140.621 28.2C139.047 29 137.207 29.4 135.101 29.4C133.047 29.4 131.221 29 129.621 28.2C128.021 27.3733 126.767 26.1867 125.861 24.64C124.981 23.0667 124.541 21.1867 124.541 19C124.541 16.8133 124.981 14.9467 125.861 13.4C126.767 11.8267 128.021 10.64 129.621 9.84C131.221 9.01333 133.047 8.6 135.101 8.6ZM135.101 13.44C134.327 13.44 133.661 13.6267 133.101 14C132.541 14.3733 132.114 14.9733 131.821 15.8C131.527 16.6267 131.381 17.6933 131.381 19C131.381 20.3067 131.527 21.3733 131.821 22.2C132.114 23 132.541 23.6 133.101 24C133.661 24.3733 134.327 24.56 135.101 24.56C135.901 24.56 136.581 24.3733 137.141 24C137.701 23.6 138.127 23 138.421 22.2C138.714 21.3733 138.861 20.3067 138.861 19C138.861 17.6933 138.714 16.6267 138.421 15.8C138.127 14.9733 137.701 14.3733 137.141 14C136.581 13.6267 135.901 13.44 135.101 13.44ZM159.046 8.6C161.153 8.6 162.993 9.01333 164.566 9.84C166.166 10.64 167.406 11.8267 168.286 13.4C169.193 14.9467 169.646 16.8133 169.646 19C169.646 21.1867 169.193 23.0667 168.286 24.64C167.406 26.1867 166.166 27.3733 164.566 28.2C162.993 29 161.153 29.4 159.046 29.4C156.993 29.4 155.166 29 153.566 28.2C151.966 27.3733 150.713 26.1867 149.806 24.64C148.926 23.0667 148.486 21.1867 148.486 19C148.486 16.8133 148.926 14.9467 149.806 13.4C150.713 11.8267 151.966 10.64 153.566 9.84C155.166 9.01333 156.993 8.6 159.046 8.6ZM159.046 13.44C158.273 13.44 157.606 13.6267 157.046 14C156.486 14.3733 156.059 14.9733 155.766 15.8C155.473 16.6267 155.326 17.6933 155.326 19C155.326 20.3067 155.473 21.3733 155.766 22.2C156.059 23 156.486 23.6 157.046 24C157.606 24.3733 158.273 24.56 159.046 24.56C159.846 24.56 160.526 24.3733 161.086 24C161.646 23.6 162.073 23 162.366 22.2C162.659 21.3733 162.806 20.3067 162.806 19C162.806 17.6933 162.659 16.6267 162.366 15.8C162.073 14.9733 161.646 14.3733 161.086 14C160.526 13.6267 159.846 13.44 159.046 13.44ZM182.991 8.6C185.098 8.6 186.938 9.01333 188.511 9.84C190.111 10.64 191.351 11.8267 192.231 13.4C193.138 14.9467 193.591 16.8133 193.591 19C193.591 21.1867 193.138 23.0667 192.231 24.64C191.351 26.1867 190.111 27.3733 188.511 28.2C186.938 29 185.098 29.4 182.991 29.4C180.938 29.4 179.111 29 177.511 28.2C175.911 27.3733 174.658 26.1867 173.751 24.64C172.871 23.0667 172.431 21.1867 172.431 19C172.431 16.8133 172.871 14.9467 173.751 13.4C174.658 11.8267 175.911 10.64 177.511 9.84C179.111 9.01333 180.938 8.6 182.991 8.6ZM182.991 13.44C182.218 13.44 181.551 13.6267 180.991 14C180.431 14.3733 180.005 14.9733 179.711 15.8C179.418 16.6267 179.271 17.6933 179.271 19C179.271 20.3067 179.418 21.3733 179.711 22.2C180.005 23 180.431 23.6 180.991 24C181.551 24.3733 182.218 24.56 182.991 24.56C183.791 24.56 184.471 24.3733 185.031 24C185.591 23.6 186.018 23 186.311 22.2C186.605 21.3733 186.751 20.3067 186.751 19C186.751 17.6933 186.605 16.6267 186.311 15.8C186.018 14.9733 185.591 14.3733 185.031 14C184.471 13.6267 183.791 13.44 182.991 13.44Z" fill="#7F42B4"/>
</svg>
